<svg preserveAspectRatio="none" overflow="visible" style="display: block;" width="8.8" height="14.4" viewBox="0 0 8.8 14.4" fill="none" xmlns="http://www.w3.org/2000/svg">
<g id="Vector">
<path d="M5.74735 6.17027C6.31921 6.17027 6.84992 6.32838 7.30658 6.60298C7.82907 5.91231 8.13762 5.04689 8.13762 4.1149C8.13762 1.84318 6.31509 0 4.06881 0C1.82253 0 0 1.84318 0 4.1149C0 5.98721 1.23833 7.56826 2.93333 8.06754C3.38999 6.95248 4.48022 6.17027 5.74735 6.17027Z" fill="black"/>
<path d="M2.71527 9.59442C1.55099 9.75669 0.654121 10.7636 0.654121 11.9868C0.654121 13.3182 1.72378 14.4 3.04028 14.4C4.2457 14.4 5.24542 13.493 5.40587 12.3155C3.99474 12.1574 2.8716 11.0257 2.71527 9.59442Z" fill="black"/>
<path d="M7.30659 6.60309C6.56195 7.58917 5.38944 8.22575 4.06882 8.22575C3.67387 8.22575 3.29127 8.1675 2.93334 8.06348C2.78112 8.42962 2.69884 8.82905 2.69884 9.24927C2.69884 9.36577 2.70707 9.47811 2.71941 9.59045C2.82638 9.57381 2.93334 9.56964 3.04442 9.56964C4.36092 9.56964 5.43058 10.6514 5.43058 11.9828C5.43058 12.0952 5.42235 12.2033 5.41001 12.3115C5.52109 12.324 5.63628 12.3323 5.75148 12.3323C7.43413 12.3323 8.8 10.951 8.8 9.24927C8.79589 8.12589 8.19935 7.14397 7.30659 6.60309Z" fill="black"/>
</g>
</svg>
